# Blender v2.76 (sub 0) OBJ File: 'businessCard.blend'
# www.blender.org
mtllib businessCard.mtl
o Card
v -0.063965 0.000000 -50.171585
v -0.063965 0.000000 -2.191589
v -0.063965 0.600000 -2.191589
v -0.063965 0.600000 -50.171585
v 2.936034 0.600000 -53.171585
v 2.936034 0.000000 -53.171585
v 2.159578 0.000000 -53.069363
v 2.159578 0.600000 -53.069363
v 1.436035 0.600000 -52.769661
v 1.436035 0.000000 -52.769661
v 0.814715 0.600000 -52.292908
v 0.814715 0.000000 -52.292908
v 0.337959 0.600000 -51.671585
v 0.337959 0.000000 -51.671585
v 0.038258 0.600000 -50.948048
v 0.038258 0.000000 -50.948048
v 82.536026 0.000000 -53.171585
v 82.536026 0.600000 -53.171585
v 85.536026 0.600000 -50.171585
v 85.536026 0.000000 -50.171585
v 85.433807 0.000000 -50.948048
v 85.433807 0.600000 -50.948048
v 85.134102 0.600000 -51.671585
v 85.134102 0.000000 -51.671585
v 84.657341 0.600000 -52.292908
v 84.657341 0.000000 -52.292908
v 84.036026 0.600000 -52.769661
v 84.036026 0.000000 -52.769661
v 83.312477 0.600000 -53.069363
v 83.312477 0.000000 -53.069363
v 85.536026 0.000000 -2.191589
v 85.536026 0.600000 -2.191589
v 82.536026 0.600000 0.808411
v 82.536026 0.000000 0.808411
v 83.312477 0.000000 0.706188
v 83.312477 0.600000 0.706188
v 84.036026 0.600000 0.406487
v 84.036026 0.000000 0.406487
v 84.657341 0.600000 -0.070269
v 84.657341 0.000000 -0.070269
v 85.134102 0.600000 -0.691589
v 85.134102 0.000000 -0.691589
v 85.433807 0.600000 -1.415132
v 85.433807 0.000000 -1.415132
v 2.936034 0.000000 0.808411
v 2.936034 0.600000 0.808411
v 0.038258 0.600000 -1.415132
v 0.038258 0.000000 -1.415132
v 0.337959 0.600000 -0.691589
v 0.337959 0.000000 -0.691589
v 0.814715 0.600000 -0.070269
v 0.814715 0.000000 -0.070269
v 1.436035 0.600000 0.406487
v 1.436035 0.000000 0.406487
v 2.159578 0.600000 0.706188
v 2.159578 0.000000 0.706188
v 41.299995 -0.010000 -42.239998
v 41.299995 -0.500000 -42.239998
v 41.299995 -0.010000 -40.740002
v 41.299995 -0.500000 -40.740002
v 43.299995 -0.010000 -40.740002
v 43.299995 -0.500000 -42.239998
v 43.299995 -0.010000 -42.239998
v 43.299995 -0.500000 -40.740002
vt 0.001273 0.045486
vt 0.004774 0.032194
vt 0.010343 0.020780
vt 0.017600 0.012021
vt 0.026051 0.006515
vt 0.035121 0.004637
vt 0.000079 0.059751
vt 0.000079 0.941195
vt 0.004774 0.968751
vt 0.001273 0.955459
vt 0.017600 0.988924
vt 0.010343 0.980166
vt 0.035121 0.996308
vt 0.026051 0.994430
vt 0.982400 0.012021
vt 0.964879 0.004637
vt 0.973949 0.006515
vt 0.995226 0.032194
vt 0.989657 0.020780
vt 0.999921 0.059751
vt 0.998727 0.045486
vt 0.964879 0.996308
vt 0.999920 0.941195
vt 0.973949 0.994430
vt 0.998727 0.955459
vt 0.982400 0.988924
vt 0.995226 0.968751
vt 0.989657 0.980166
vt 0.982452 0.017156
vt 0.987960 0.028645
vt 0.991423 0.042025
vt 0.975274 0.008340
vt 0.966915 0.002798
vt 0.992603 0.056383
vt 0.957945 0.000908
vt 0.992603 0.943618
vt 0.991422 0.957976
vt 0.987960 0.971356
vt 0.982452 0.982845
vt 0.975274 0.991661
vt 0.966915 0.997203
vt 0.957944 0.999093
vt 0.029365 0.002797
vt 0.038335 0.000907
vt 0.021005 0.008339
vt 0.013828 0.017155
vt 0.008319 0.028644
vt 0.004857 0.042024
vt 0.003676 0.056382
vt 0.038335 0.999092
vt 0.003676 0.943617
vt 0.029364 0.997202
vt 0.004856 0.957975
vt 0.008319 0.971355
vt 0.021005 0.991660
vt 0.013827 0.982844
vt 0.000000 0.000000
vt 0.654110 0.017602
vt 0.630749 0.017602
vt 0.630749 0.000081
vt 0.654110 0.000081
vn 0.000000 1.000000 0.000000
vn 0.000000 -1.000000 0.000000
vn -1.000000 0.000000 0.000000
vn -0.130500 0.000000 -0.991400
vn -0.382700 0.000000 -0.923900
vn -0.608800 0.000000 -0.793400
vn -0.793400 0.000000 -0.608800
vn -0.923900 0.000000 -0.382700
vn -0.991400 0.000000 -0.130500
vn 0.000000 0.000000 -1.000000
vn 0.991400 0.000000 -0.130500
vn 0.923900 0.000000 -0.382700
vn 0.793300 0.000000 -0.608800
vn 0.793400 0.000000 -0.608800
vn 0.608800 0.000000 -0.793400
vn 0.382700 0.000000 -0.923900
vn 0.130500 0.000000 -0.991400
vn 1.000000 0.000000 0.000000
vn 0.130500 0.000000 0.991400
vn 0.382700 0.000000 0.923900
vn 0.608800 0.000000 0.793400
vn 0.793400 0.000000 0.608800
vn 0.923900 0.000000 0.382700
vn 0.991400 0.000000 0.130500
vn 0.000000 0.000000 1.000000
vn -0.991400 0.000000 0.130500
vn -0.923900 0.000000 0.382700
vn -0.793400 0.000000 0.608800
vn -0.608800 0.000000 0.793400
vn -0.382700 0.000000 0.923900
vn -0.130500 0.000000 0.991400
usemtl Front
s off
f 47/1/1 49/2/1 51/3/1
f 47/1/1 51/3/1 53/4/1
f 47/1/1 53/4/1 55/5/1
f 46/6/1 3/7/1 47/1/1
f 46/6/1 47/1/1 55/5/1
f 4/8/1 3/7/1 46/6/1
f 13/9/1 15/10/1 4/8/1
f 9/11/1 11/12/1 13/9/1
f 5/13/1 8/14/1 9/11/1
f 5/13/1 13/9/1 4/8/1
f 5/13/1 4/8/1 46/6/1
f 5/13/1 9/11/1 13/9/1
f 37/15/1 33/16/1 36/17/1
f 41/18/1 37/15/1 39/19/1
f 32/20/1 41/18/1 43/21/1
f 32/20/1 33/16/1 37/15/1
f 32/20/1 37/15/1 41/18/1
f 18/22/1 46/6/1 33/16/1
f 18/22/1 5/13/1 46/6/1
f 19/23/1 18/22/1 33/16/1
f 19/23/1 33/16/1 32/20/1
f 29/24/1 18/22/1 19/23/1
f 22/25/1 29/24/1 19/23/1
f 27/26/1 22/25/1 23/27/1
f 27/26/1 29/24/1 22/25/1
f 25/28/1 27/26/1 23/27/1
usemtl Back
f 52/29/2 50/30/2 48/31/2
f 54/32/2 52/29/2 48/31/2
f 56/33/2 54/32/2 48/31/2
f 48/31/2 2/34/2 45/35/2
f 56/33/2 48/31/2 45/35/2
f 45/35/2 2/34/2 1/36/2
f 1/36/2 16/37/2 14/38/2
f 14/38/2 12/39/2 10/40/2
f 10/40/2 7/41/2 6/42/2
f 1/36/2 14/38/2 6/42/2
f 45/35/2 1/36/2 6/42/2
f 14/38/2 10/40/2 6/42/2
f 35/43/2 34/44/2 38/45/2
f 40/46/2 38/45/2 42/47/2
f 44/48/2 42/47/2 31/49/2
f 38/45/2 34/44/2 31/49/2
f 42/47/2 38/45/2 31/49/2
f 34/44/2 45/35/2 17/50/2
f 45/35/2 6/42/2 17/50/2
f 34/44/2 17/50/2 20/51/2
f 31/49/2 34/44/2 20/51/2
f 20/51/2 17/50/2 30/52/2
f 20/51/2 30/52/2 21/53/2
f 24/54/2 21/53/2 28/55/2
f 21/53/2 30/52/2 28/55/2
f 24/54/2 28/55/2 26/56/2
usemtl Back_NONE
f 1/57/3 2/57/3 3/57/3
f 1/57/3 3/57/3 4/57/3
f 5/57/4 6/57/4 7/57/4
f 8/57/4 5/57/4 7/57/4
f 9/57/5 8/57/5 10/57/5
f 8/57/5 7/57/5 10/57/5
f 11/57/6 9/57/6 12/57/6
f 9/57/6 10/57/6 12/57/6
f 13/57/7 11/57/7 14/57/7
f 11/57/7 12/57/7 14/57/7
f 15/57/8 13/57/8 16/57/8
f 4/57/9 15/57/9 16/57/9
f 13/57/8 14/57/8 16/57/8
f 4/57/9 16/57/9 1/57/9
f 17/57/10 6/57/10 5/57/10
f 17/57/10 5/57/10 18/57/10
f 19/57/11 20/57/11 21/57/11
f 22/57/11 19/57/11 21/57/11
f 23/57/12 22/57/12 24/57/12
f 25/57/13 23/57/13 24/57/13
f 22/57/12 21/57/12 24/57/12
f 25/57/14 24/57/14 26/57/14
f 27/57/15 25/57/15 28/57/15
f 29/57/16 27/57/16 28/57/16
f 25/57/15 26/57/15 28/57/15
f 18/57/17 29/57/17 30/57/17
f 29/57/16 28/57/16 30/57/16
f 18/57/17 30/57/17 17/57/17
f 31/57/18 20/57/18 19/57/18
f 31/57/18 19/57/18 32/57/18
f 33/57/19 34/57/19 35/57/19
f 36/57/19 33/57/19 35/57/19
f 37/57/20 36/57/20 38/57/20
f 39/57/21 37/57/21 38/57/21
f 36/57/20 35/57/20 38/57/20
f 39/57/21 38/57/21 40/57/21
f 41/57/22 39/57/22 42/57/22
f 43/57/23 41/57/23 42/57/23
f 39/57/22 40/57/22 42/57/22
f 32/57/24 43/57/24 44/57/24
f 43/57/23 42/57/23 44/57/23
f 32/57/24 44/57/24 31/57/24
f 45/57/25 34/57/25 33/57/25
f 45/57/25 33/57/25 46/57/25
f 47/57/26 3/57/26 2/57/26
f 47/57/26 2/57/26 48/57/26
f 49/57/27 47/57/27 50/57/27
f 51/57/28 49/57/28 50/57/28
f 47/57/27 48/57/27 50/57/27
f 51/57/28 50/57/28 52/57/28
f 53/57/29 51/57/29 54/57/29
f 55/57/30 53/57/30 54/57/30
f 51/57/29 52/57/29 54/57/29
f 55/57/30 54/57/30 56/57/30
f 46/57/31 55/57/31 45/57/31
f 55/57/31 56/57/31 45/57/31
usemtl Material.001
f 63/58/1 57/59/1 59/60/1
f 63/58/1 59/60/1 61/61/1
usemtl Material.001_NONE
f 57/57/3 58/57/3 59/57/3
f 58/57/3 60/57/3 59/57/3
f 61/57/18 62/57/18 63/57/18
f 61/57/18 64/57/18 62/57/18
f 60/57/25 64/57/25 61/57/25
f 59/57/25 60/57/25 61/57/25
f 63/57/10 62/57/10 58/57/10
f 63/57/10 58/57/10 57/57/10
f 60/57/2 58/57/2 62/57/2
f 64/57/2 60/57/2 62/57/2
